<svg xmlns="http://www.w3.org/2000/svg" viewBox="0 0 640 670" role="img" aria-label="Bridge with Arm Pulses">
  <defs><linearGradient id="g407" x1="0" y1="0" x2="1" y2="1"><stop offset="0" stop-color="#FFF9EA"/><stop offset="1" stop-color="#EFE0C4"/></linearGradient></defs>
  <rect width="640" height="670" fill="url(#g407)"/>
  <circle cx="330" cy="358" r="188" fill="none" stroke="#31598F" stroke-opacity=".17" stroke-width="18"/>
  <circle cx="330" cy="358" r="234" fill="none" stroke="#73685B" stroke-opacity=".12" stroke-width="4" stroke-dasharray="5 14"/>
  <rect x="102" y="488" width="438" height="44" rx="10" fill="#D8C39B" stroke="#8A6C3C" stroke-width="3"/>
  <g stroke-linecap="round">
    <path d="M296 394 L405 438" stroke="#31598F" stroke-width="11" stroke-linecap="round"/><path d="M292 392 L296 394" stroke="#31598F" stroke-width="10" stroke-linecap="round"/><path d="M296 394 L292 450" stroke="#31598F" stroke-width="9" stroke-linecap="round"/><path d="M292 450 L312 502" stroke="#31598F" stroke-width="9" stroke-linecap="round"/><path d="M296 394 L360 452" stroke="#31598F" stroke-width="9" stroke-linecap="round"/><path d="M360 452 L388 500" stroke="#31598F" stroke-width="9" stroke-linecap="round"/><path d="M405 438 L530 370" stroke="#31598F" stroke-width="11" stroke-linecap="round"/><path d="M530 370 L588 438" stroke="#31598F" stroke-width="10" stroke-linecap="round"/>
    <circle cx="238" cy="388" r="28" fill="#FFF9EA" stroke="#31598F" stroke-width="9"/>
    <circle cx="292" cy="392" r="7" fill="#31598F"/>
    <circle cx="405" cy="438" r="8" fill="#31598F"/>
  </g>
  <rect x="24" y="24" width="98" height="42" rx="5" fill="#31598F"/>
  <text x="73" y="53" text-anchor="middle" font-family="Arial, sans-serif" font-size="24" font-weight="700" fill="#FFF9EA" letter-spacing="2">NEW</text>
  <text x="610" y="630" text-anchor="end" font-family="Arial, sans-serif" font-size="24" fill="#73685B">L-7</text>
</svg>