<svg xmlns="http://www.w3.org/2000/svg" viewBox="0 0 640 670" role="img" aria-label="Leg Springs Standing Press">
  <defs><linearGradient id="g420" x1="0" y1="0" x2="1" y2="1"><stop offset="0" stop-color="#FFF9EA"/><stop offset="1" stop-color="#EFE0C4"/></linearGradient></defs>
  <rect width="640" height="670" fill="url(#g420)"/>
  <circle cx="330" cy="358" r="188" fill="none" stroke="#7A521F" stroke-opacity=".17" stroke-width="18"/>
  <circle cx="330" cy="358" r="234" fill="none" stroke="#73685B" stroke-opacity=".12" stroke-width="4" stroke-dasharray="5 14"/>
  <rect x="88" y="118" width="452" height="24" rx="8" fill="#D8C39B" stroke="#8A6C3C" stroke-width="3"/><path d="M104 142 V545 M522 142 V545" stroke="#8A6C3C" stroke-width="8" stroke-linecap="round"/>
  <g stroke-linecap="round">
    <path d="M332 204 L322 352" stroke="#7A521F" stroke-width="11" stroke-linecap="round"/><path d="M333 196 L332 204" stroke="#7A521F" stroke-width="10" stroke-linecap="round"/><path d="M332 204 L432 258" stroke="#7A521F" stroke-width="9" stroke-linecap="round"/><path d="M432 258 L512 282" stroke="#7A521F" stroke-width="9" stroke-linecap="round"/><path d="M332 204 L232 262" stroke="#7A521F" stroke-width="9" stroke-linecap="round"/><path d="M232 262 L158 282" stroke="#7A521F" stroke-width="9" stroke-linecap="round"/><path d="M322 352 L324 480" stroke="#7A521F" stroke-width="11" stroke-linecap="round"/><path d="M324 480 L322 568" stroke="#7A521F" stroke-width="10" stroke-linecap="round"/>
    <circle cx="336" cy="142" r="28" fill="#FFF9EA" stroke="#7A521F" stroke-width="9"/>
    <circle cx="333" cy="196" r="7" fill="#7A521F"/>
    <circle cx="322" cy="352" r="8" fill="#7A521F"/>
  </g>
  <rect x="24" y="24" width="98" height="42" rx="5" fill="#7A521F"/>
  <text x="73" y="53" text-anchor="middle" font-family="Arial, sans-serif" font-size="24" font-weight="700" fill="#FFF9EA" letter-spacing="2">NEW</text>
  <text x="610" y="630" text-anchor="end" font-family="Arial, sans-serif" font-size="24" fill="#73685B">R-2</text>
</svg>