<svg xmlns="http://www.w3.org/2000/svg" viewBox="0 0 640 670" role="img" aria-label="Downward-Facing Dog">
  <defs><linearGradient id="yg514" x1="0" y1="0" x2="1" y2="1"><stop offset="0" stop-color="#F4F8EF"/><stop offset="1" stop-color="#DCE7D4"/></linearGradient></defs>
  <rect width="640" height="670" fill="url(#yg514)"/>
  <circle cx="322" cy="352" r="195" fill="none" stroke="#3C6E57" stroke-opacity=".14" stroke-width="20"/>
  <circle cx="322" cy="352" r="238" fill="none" stroke="#53604D" stroke-opacity=".12" stroke-width="4" stroke-dasharray="4 16"/>
  <rect x="92" y="525" width="456" height="42" rx="10" fill="#CBD8C6" stroke="#53604D" stroke-width="3"/>
  <g stroke-linecap="round"><path d="M162 338 L218 312" stroke="#3C6E57" stroke-width="9" stroke-linecap="round"/><path d="M218 312 L272 302" stroke="#3C6E57" stroke-width="10" stroke-linecap="round"/><path d="M272 302 L428 242" stroke="#3C6E57" stroke-width="11" stroke-linecap="round"/><path d="M272 302 L178 382" stroke="#3C6E57" stroke-width="9" stroke-linecap="round"/><path d="M178 382 L148 458" stroke="#3C6E57" stroke-width="9" stroke-linecap="round"/><path d="M272 302 L498 318" stroke="#3C6E57" stroke-width="9" stroke-linecap="round"/><path d="M498 318 L572 372" stroke="#3C6E57" stroke-width="9" stroke-linecap="round"/><path d="M428 242 L328 378" stroke="#3C6E57" stroke-width="10" stroke-linecap="round"/><path d="M328 378 L288 502" stroke="#3C6E57" stroke-width="10" stroke-linecap="round"/><path d="M428 242 L338 378" stroke="#3C6E57" stroke-width="10" stroke-linecap="round"/><path d="M338 378 L352 502" stroke="#3C6E57" stroke-width="10" stroke-linecap="round"/></g>
  <circle cx="162" cy="338" r="27" fill="#F4F8EF" stroke="#3C6E57" stroke-width="9"/>
  <circle cx="218" cy="312" r="7" fill="#3C6E57"/><circle cx="428" cy="242" r="8" fill="#3C6E57"/>
  <rect x="24" y="24" width="92" height="42" rx="5" fill="#3C6E57"/><text x="70" y="53" text-anchor="middle" font-family="Arial, sans-serif" font-size="23" font-weight="700" fill="#F4F8EF" letter-spacing="2">YOGA</text>
  <text x="610" y="630" text-anchor="end" font-family="Arial, sans-serif" font-size="24" fill="#53604D">5</text>
</svg>