<svg xmlns="http://www.w3.org/2000/svg" viewBox="0 0 640 670" role="img" aria-label="Cat-Cow Flow">
  <defs><linearGradient id="yg519" x1="0" y1="0" x2="1" y2="1"><stop offset="0" stop-color="#F4F8EF"/><stop offset="1" stop-color="#DCE7D4"/></linearGradient></defs>
  <rect width="640" height="670" fill="url(#yg519)"/>
  <circle cx="322" cy="352" r="195" fill="none" stroke="#9F2F24" stroke-opacity=".14" stroke-width="20"/>
  <circle cx="322" cy="352" r="238" fill="none" stroke="#53604D" stroke-opacity=".12" stroke-width="4" stroke-dasharray="4 16"/>
  <rect x="92" y="525" width="456" height="42" rx="10" fill="#CBD8C6" stroke="#53604D" stroke-width="3"/>
  <g stroke-linecap="round"><path d="M165 335 L225 365" stroke="#9F2F24" stroke-width="9" stroke-linecap="round"/><path d="M225 365 L285 388" stroke="#9F2F24" stroke-width="10" stroke-linecap="round"/><path d="M285 388 L432 418" stroke="#9F2F24" stroke-width="11" stroke-linecap="round"/><path d="M285 388 L238 448" stroke="#9F2F24" stroke-width="9" stroke-linecap="round"/><path d="M238 448 L215 545" stroke="#9F2F24" stroke-width="9" stroke-linecap="round"/><path d="M285 388 L498 438" stroke="#9F2F24" stroke-width="9" stroke-linecap="round"/><path d="M498 438 L568 485" stroke="#9F2F24" stroke-width="9" stroke-linecap="round"/><path d="M432 418 L525 468" stroke="#9F2F24" stroke-width="10" stroke-linecap="round"/><path d="M525 468 L585 488" stroke="#9F2F24" stroke-width="10" stroke-linecap="round"/><path d="M432 418 L475 468" stroke="#9F2F24" stroke-width="10" stroke-linecap="round"/><path d="M475 468 L528 498" stroke="#9F2F24" stroke-width="10" stroke-linecap="round"/></g>
  <circle cx="165" cy="335" r="27" fill="#F4F8EF" stroke="#9F2F24" stroke-width="9"/>
  <circle cx="225" cy="365" r="7" fill="#9F2F24"/><circle cx="432" cy="418" r="8" fill="#9F2F24"/>
  <rect x="24" y="24" width="92" height="42" rx="5" fill="#9F2F24"/><text x="70" y="53" text-anchor="middle" font-family="Arial, sans-serif" font-size="23" font-weight="700" fill="#F4F8EF" letter-spacing="2">YOGA</text>
  <text x="610" y="630" text-anchor="end" font-family="Arial, sans-serif" font-size="24" fill="#53604D">1</text>
</svg>