<svg xmlns="http://www.w3.org/2000/svg" viewBox="0 0 640 670" role="img" aria-label="Head-to-Knee Pose">
  <defs><linearGradient id="yg524" x1="0" y1="0" x2="1" y2="1"><stop offset="0" stop-color="#F4F8EF"/><stop offset="1" stop-color="#DCE7D4"/></linearGradient></defs>
  <rect width="640" height="670" fill="url(#yg524)"/>
  <circle cx="322" cy="352" r="195" fill="none" stroke="#7A521F" stroke-opacity=".14" stroke-width="20"/>
  <circle cx="322" cy="352" r="238" fill="none" stroke="#53604D" stroke-opacity=".12" stroke-width="4" stroke-dasharray="4 16"/>
  <rect x="92" y="525" width="456" height="42" rx="10" fill="#CBD8C6" stroke="#53604D" stroke-width="3"/>
  <g stroke-linecap="round"><path d="M488 278 L428 305" stroke="#7A521F" stroke-width="9" stroke-linecap="round"/><path d="M428 305 L368 322" stroke="#7A521F" stroke-width="10" stroke-linecap="round"/><path d="M368 322 L285 400" stroke="#7A521F" stroke-width="11" stroke-linecap="round"/><path d="M368 322 L468 372" stroke="#7A521F" stroke-width="9" stroke-linecap="round"/><path d="M468 372 L552 378" stroke="#7A521F" stroke-width="9" stroke-linecap="round"/><path d="M368 322 L298 382" stroke="#7A521F" stroke-width="9" stroke-linecap="round"/><path d="M298 382 L228 462" stroke="#7A521F" stroke-width="9" stroke-linecap="round"/><path d="M285 400 L488 472" stroke="#7A521F" stroke-width="10" stroke-linecap="round"/><path d="M488 472 L578 530" stroke="#7A521F" stroke-width="10" stroke-linecap="round"/><path d="M285 400 L378 502" stroke="#7A521F" stroke-width="10" stroke-linecap="round"/><path d="M378 502 L322 568" stroke="#7A521F" stroke-width="10" stroke-linecap="round"/></g>
  <circle cx="488" cy="278" r="27" fill="#F4F8EF" stroke="#7A521F" stroke-width="9"/>
  <circle cx="428" cy="305" r="7" fill="#7A521F"/><circle cx="285" cy="400" r="8" fill="#7A521F"/>
  <rect x="24" y="24" width="92" height="42" rx="5" fill="#7A521F"/><text x="70" y="53" text-anchor="middle" font-family="Arial, sans-serif" font-size="23" font-weight="700" fill="#F4F8EF" letter-spacing="2">YOGA</text>
  <text x="610" y="630" text-anchor="end" font-family="Arial, sans-serif" font-size="24" fill="#53604D">6</text>
</svg>