<svg xmlns="http://www.w3.org/2000/svg" viewBox="0 0 640 670" role="img" aria-label="Seated Spinal Twist">
  <defs><linearGradient id="yg525" x1="0" y1="0" x2="1" y2="1"><stop offset="0" stop-color="#F4F8EF"/><stop offset="1" stop-color="#DCE7D4"/></linearGradient></defs>
  <rect width="640" height="670" fill="url(#yg525)"/>
  <circle cx="322" cy="352" r="195" fill="none" stroke="#31598F" stroke-opacity=".14" stroke-width="20"/>
  <circle cx="322" cy="352" r="238" fill="none" stroke="#53604D" stroke-opacity=".12" stroke-width="4" stroke-dasharray="4 16"/>
  <rect x="92" y="525" width="456" height="42" rx="10" fill="#CBD8C6" stroke="#53604D" stroke-width="3"/>
  <g stroke-linecap="round"><path d="M465 235 L408 270" stroke="#31598F" stroke-width="9" stroke-linecap="round"/><path d="M408 270 L352 298" stroke="#31598F" stroke-width="10" stroke-linecap="round"/><path d="M352 298 L292 408" stroke="#31598F" stroke-width="11" stroke-linecap="round"/><path d="M352 298 L482 392" stroke="#31598F" stroke-width="9" stroke-linecap="round"/><path d="M482 392 L552 438" stroke="#31598F" stroke-width="9" stroke-linecap="round"/><path d="M352 298 L228 330" stroke="#31598F" stroke-width="9" stroke-linecap="round"/><path d="M228 330 L182 435" stroke="#31598F" stroke-width="9" stroke-linecap="round"/><path d="M292 408 L428 482" stroke="#31598F" stroke-width="10" stroke-linecap="round"/><path d="M428 482 L508 540" stroke="#31598F" stroke-width="10" stroke-linecap="round"/><path d="M292 408 L398 502" stroke="#31598F" stroke-width="10" stroke-linecap="round"/><path d="M398 502 L322 565" stroke="#31598F" stroke-width="10" stroke-linecap="round"/></g>
  <circle cx="465" cy="235" r="27" fill="#F4F8EF" stroke="#31598F" stroke-width="9"/>
  <circle cx="408" cy="270" r="7" fill="#31598F"/><circle cx="292" cy="408" r="8" fill="#31598F"/>
  <rect x="24" y="24" width="92" height="42" rx="5" fill="#31598F"/><text x="70" y="53" text-anchor="middle" font-family="Arial, sans-serif" font-size="23" font-weight="700" fill="#F4F8EF" letter-spacing="2">YOGA</text>
  <text x="610" y="630" text-anchor="end" font-family="Arial, sans-serif" font-size="24" fill="#53604D">7</text>
</svg>