<svg xmlns="http://www.w3.org/2000/svg" viewBox="0 0 640 670" role="img" aria-label="Lizard Pose">
  <defs><linearGradient id="yg530" x1="0" y1="0" x2="1" y2="1"><stop offset="0" stop-color="#F4F8EF"/><stop offset="1" stop-color="#DCE7D4"/></linearGradient></defs>
  <rect width="640" height="670" fill="url(#yg530)"/>
  <circle cx="322" cy="352" r="195" fill="none" stroke="#3C6E57" stroke-opacity=".14" stroke-width="20"/>
  <circle cx="322" cy="352" r="238" fill="none" stroke="#53604D" stroke-opacity=".12" stroke-width="4" stroke-dasharray="4 16"/>
  <rect x="92" y="525" width="456" height="42" rx="10" fill="#CBD8C6" stroke="#53604D" stroke-width="3"/>
  <g stroke-linecap="round"><path d="M178 265 L238 298" stroke="#3C6E57" stroke-width="9" stroke-linecap="round"/><path d="M238 298 L298 325" stroke="#3C6E57" stroke-width="10" stroke-linecap="round"/><path d="M298 325 L432 412" stroke="#3C6E57" stroke-width="11" stroke-linecap="round"/><path d="M298 325 L238 392" stroke="#3C6E57" stroke-width="9" stroke-linecap="round"/><path d="M238 392 L182 515" stroke="#3C6E57" stroke-width="9" stroke-linecap="round"/><path d="M298 325 L505 428" stroke="#3C6E57" stroke-width="9" stroke-linecap="round"/><path d="M505 428 L568 502" stroke="#3C6E57" stroke-width="9" stroke-linecap="round"/><path d="M432 412 L445 518" stroke="#3C6E57" stroke-width="10" stroke-linecap="round"/><path d="M445 518 L522 568" stroke="#3C6E57" stroke-width="10" stroke-linecap="round"/><path d="M432 412 L388 505" stroke="#3C6E57" stroke-width="10" stroke-linecap="round"/><path d="M388 505 L322 565" stroke="#3C6E57" stroke-width="10" stroke-linecap="round"/></g>
  <circle cx="178" cy="265" r="27" fill="#F4F8EF" stroke="#3C6E57" stroke-width="9"/>
  <circle cx="238" cy="298" r="7" fill="#3C6E57"/><circle cx="432" cy="412" r="8" fill="#3C6E57"/>
  <rect x="24" y="24" width="92" height="42" rx="5" fill="#3C6E57"/><text x="70" y="53" text-anchor="middle" font-family="Arial, sans-serif" font-size="23" font-weight="700" fill="#F4F8EF" letter-spacing="2">YOGA</text>
  <text x="610" y="630" text-anchor="end" font-family="Arial, sans-serif" font-size="24" fill="#53604D">3</text>
</svg>